<svg id="レイヤー_1" data-name="レイヤー 1" xmlns="http://www.w3.org/2000/svg" viewBox="0 0 420.47 175.5"><text x="-6.77" y="-4.29"/><path d="M8.28,25.27h.25A7.54,7.54,0,0,0,15,29c3.42,0,4.75-2.16,4.75-4,0-5.87-11.37-5.11-11.37-12.6,0-4.86,4.61-7.52,8.78-7.52,2.13,0,7,.39,7,2.59a3.92,3.92,0,0,1-1.58,2.77h-.26s-2.05-3.42-5.54-3.42a4.24,4.24,0,0,0-4.39,4.11c0,5.72,11.37,4.64,11.37,12.38,0,5.18-4.71,7.84-9.21,7.84-2.77,0-7.74-1-7.74-3.27A3.87,3.87,0,0,1,8.28,25.27Z" transform="translate(-6.77 -4.29)"/><path d="M29,16.13a33.76,33.76,0,0,0-.22-3.56,7.94,7.94,0,0,1,2-.36c1.3,0,2.13.75,2.13,3,0,2.74-1.26,7.42-1.26,10.59,0,2,.57,2.88,1.72,2.88,1.84,0,3.42-2.41,4.43-4.68a16.79,16.79,0,0,0,1.51-7.35,32.63,32.63,0,0,0-.21-4.06,8.72,8.72,0,0,1,2-.36c1.33,0,2,.9,2,2.8,0,2.67-1.29,8.25-1.29,11.45,0,1.08.14,2.09,1.11,2.09,1.59,0,3.1-2.77,3.1-2.77l.25.14s-1,5-5.22,5c-1.58,0-3-.68-3-2.73a12.66,12.66,0,0,1,.26-2.09H38.2c-1.41,2.67-3.17,5-6.48,5s-3.78-2.2-3.78-4.5C27.94,23.51,29,20.16,29,16.13Z" transform="translate(-6.77 -4.29)"/><path d="M50.15,16.42a15.23,15.23,0,0,0-.47-3.85,8.84,8.84,0,0,1,2-.36c1.44,0,2.27,1,2.27,2.66A8.73,8.73,0,0,1,53.68,17h.18c1.29-2.59,3-5,6.08-5s3.6,2.27,3.6,5h.18c1.3-2.59,3-5,6.08-5s3.75,2,3.75,4.68c0,3.31-1.16,7.49-1.16,10.23,0,.82.11,1.58,1,1.58,1.8,0,3.24-2.77,3.24-2.77l.25.14s-1,5-5.18,5c-1.87,0-3-1-3-2.84s1.08-7.38,1.08-10.58c0-2.16-.47-3.06-1.62-3.06-1.73,0-3.17,2.45-4.07,4.71A22.07,22.07,0,0,0,62.57,28c0,2.85-.33,2.88-3.89,2.88,0-3.06,1.3-9.25,1.3-13.35,0-2.16-.51-3.06-1.62-3.06-1.73,0-3.17,2.45-4.07,4.71A21.89,21.89,0,0,0,52.71,28c0,2.85-.33,2.88-3.89,2.88C48.82,27.43,50.15,20.16,50.15,16.42Z" transform="translate(-6.77 -4.29)"/><path d="M80.53,16.42a15.23,15.23,0,0,0-.47-3.85,8.85,8.85,0,0,1,2.06-.36c1.44,0,2.26,1,2.26,2.66,0,3.85-1.33,8.71-1.33,12.1,0,.82.11,1.58,1,1.58,1.8,0,3.24-2.77,3.24-2.77l.25.14s-1,5-5.19,5c-1.87,0-3-1-3-2.84S80.5,20.7,80.53,16.42Zm.07-9.76a2.36,2.36,0,1,1,4.72,0,2.36,2.36,0,0,1-4.72,0Z" transform="translate(-6.77 -4.29)"/><path d="M88.56,35.6c2.38,0,4.28-1.65,5.76-3.6-.32-1.83-2.59-14.93-6-19.25v-.18a12.72,12.72,0,0,1,2.3-.29,2.53,2.53,0,0,1,2.52,1.47c2.31,3.68,3.31,11.74,3.6,14.15,1.66-3.71,4.18-8.39,4.18-12.09,0-2.27-1.15-3-1.15-3v-.28a5,5,0,0,1,1.69-.29c1.26,0,2.12.47,2.12,2.09,0,3.67-4.57,12.52-5,13.21C97,30.49,93.17,38.84,87.91,38.84c-1.58,0-2.19-.75-2.19-1.69a6.76,6.76,0,0,1,.43-1.91A9.39,9.39,0,0,0,88.56,35.6Z" transform="translate(-6.77 -4.29)"/><path d="M106,24.48c0-6.91,4.32-12.42,10.26-12.42,1.3,0,2.81.47,5.44.54l.11.11c-.47,1.69-1.15,7.45-1.48,10.69-.18,1.69-.32,3.06-.32,3.71s.11,1.44,1,1.44c1.69,0,3.16-2.77,3.16-2.77l.25.14s-1,5-5.21,5a2.63,2.63,0,0,1-3-3,11.17,11.17,0,0,1,.18-1.47h-.18c-1.08,2.08-3.16,4.57-5.83,4.57S106,28.51,106,24.48Zm11-2.84c.29-1.84.5-3.89.68-6.16a1.65,1.65,0,0,0-1.83-1.73c-4.11,0-5.91,6.23-5.91,10.48,0,2.34.72,4.54,2,4.54C113.9,28.77,116.5,24.3,116.93,21.64Z" transform="translate(-6.77 -4.29)"/><path d="M17.86,44a27.69,27.69,0,0,0-.33-4.72c3.75,0,4.22,1.33,4.22,4.21A83.65,83.65,0,0,1,21,52.63c.5-1,2.48-4.57,5.69-4.57,2.84,0,4.71,2.81,4.71,7.09,0,6.59-4.53,11.95-10.94,11.95-1.69,0-4.36-.35-4.36-3.2C16.09,61.63,17.86,52.24,17.86,44Zm4,21.45c4,0,5.51-7.09,5.51-10.37,0-2.09-.62-4.43-2.09-4.43-1.84,0-4.18,3.64-4.9,6.23-.32,2.7-.61,4.93-.61,6C19.8,64.73,20.63,65.45,21.89,65.45Z" transform="translate(-6.77 -4.29)"/><path d="M34.17,60.48c0-6.91,4.32-12.42,10.25-12.42,1.3,0,2.81.47,5.44.54l.11.11c-.47,1.69-1.15,7.45-1.48,10.69-.18,1.69-.32,3.06-.32,3.71s.11,1.44,1,1.44c1.69,0,3.16-2.77,3.16-2.77l.26.14s-1,5-5.22,5a2.63,2.63,0,0,1-3-3,11.17,11.17,0,0,1,.18-1.47h-.18c-1.08,2.08-3.16,4.57-5.83,4.57S34.17,64.51,34.17,60.48Zm10.94-2.84c.29-1.84.5-3.89.68-6.16A1.65,1.65,0,0,0,44,49.75c-4.11,0-5.91,6.23-5.91,10.48,0,2.34.72,4.54,2,4.54C42.08,64.77,44.68,60.3,45.11,57.64Z" transform="translate(-6.77 -4.29)"/><path d="M56.81,44a28.41,28.41,0,0,0-.32-4.64c3.74,0,4.21,1.11,4.21,4.68,0,4.53-1.91,16.81-1.91,19,0,.82.11,1.58.94,1.58,1.79,0,3.23-2.77,3.23-2.77l.26.14s-1,5-5.19,5c-1.87,0-3-1-3-2.84C55.05,61.45,56.81,52.45,56.81,44Z" transform="translate(-6.77 -4.29)"/><path d="M67.46,44a28.41,28.41,0,0,0-.32-4.64c3.74,0,4.21,1.11,4.21,4.68,0,4.53-1.91,16.81-1.91,19,0,.82.11,1.58.94,1.58,1.8,0,3.24-2.77,3.24-2.77l.25.14s-1,5-5.18,5c-1.87,0-3-1-3-2.84C65.7,61.45,67.46,52.45,67.46,44Z" transform="translate(-6.77 -4.29)"/><path d="M84.53,48.06c3.24,0,5.07,1.91,5.07,4.14,0,5.15-6.08,6.16-10.15,6.3,0,3.28,1.66,5.94,4.43,5.94a6.18,6.18,0,0,0,4.75-2.63l.29.11a6.45,6.45,0,0,1-6.37,5.15c-4.11,0-7-3.28-7-8C75.56,53.21,79.67,48.06,84.53,48.06Zm1.26,4.14c0-1.26-.69-2.59-1.59-2.59-2.52,0-4.35,3.71-4.71,7.49C82.62,57,85.79,55.87,85.79,52.2Z" transform="translate(-6.77 -4.29)"/><path d="M94.36,52.2c0-1.37-.33-1.69-1.3-2.12l.11-1.51c2-.29,4-2.23,5-4.14l.9.36-.69,3.78h2.52a4.71,4.71,0,0,0,1.8-.18c0,1.73-.61,2.62-1.87,2.62-.43,0-2.66-.07-2.66-.07A71.11,71.11,0,0,0,97.2,61c0,2.08.14,3.2,1.58,3.2,1.62,0,2.88-1.44,3.82-2.95l.25.14c-.43,2.16-1.65,5.54-5.18,5.54-2.56,0-4.21-1.51-4.21-4.49C93.46,60.05,94.36,56.59,94.36,52.2Z" transform="translate(-6.77 -4.29)"/></svg>